/* XPM */
static char * acbfe_xpm[] = {
"32 32 411 2",
"  	c None",
". 	c #3E1E04",
"+ 	c #422B0C",
"@ 	c #4C4B21",
"# 	c #54602F",
"$ 	c #463C16",
"% 	c #5F8B49",
"& 	c #7AD57B",
"* 	c #8EFF9C",
"= 	c #92FE9D",
"- 	c #93FB9D",
"; 	c #43310F",
"> 	c #5E9D4F",
", 	c #80FC8E",
"' 	c #86F692",
") 	c #8FF698",
"! 	c #95F69D",
"~ 	c #99F6A1",
"{ 	c #9CF6A3",
"] 	c #484B1C",
"^ 	c #6DEF7B",
"/ 	c #7AF487",
"( 	c #85F590",
"_ 	c #8FF699",
": 	c #98F6A0",
"< 	c #9FF7A6",
"[ 	c #A5F7AA",
"} 	c #A8F7AD",
"| 	c #4A6328",
"1 	c #69F97B",
"2 	c #74F482",
"3 	c #81F58C",
"4 	c #8CF596",
"5 	c #97F69F",
"6 	c #A1F7A7",
"7 	c #A9F7AE",
"8 	c #AFF8B3",
"9 	c #B3F8B6",
"0 	c #B0F8B3",
"a 	c #75F482",
"b 	c #45491A",
"c 	c #60F874",
"d 	c #6CF37C",
"e 	c #79F486",
"f 	c #86F590",
"g 	c #92F69B",
"h 	c #9DF7A5",
"i 	c #B2F8B6",
"j 	c #BAF9BC",
"k 	c #BEF9BF",
"l 	c #9EF7A5",
"m 	c #93F69B",
"n 	c #6CF37B",
"o 	c #42300E",
"p 	c #52E462",
"q 	c #62F373",
"r 	c #70F47E",
"s 	c #7DF58A",
"t 	c #8AF594",
"u 	c #A4F7A9",
"v 	c #B0F8B4",
"w 	c #BBF9BD",
"x 	c #C4F9C4",
"y 	c #CAFAC9",
"z 	c #8BF594",
"A 	c #70F47F",
"B 	c #448F36",
"C 	c #55EC67",
"D 	c #65F375",
"E 	c #72F481",
"F 	c #80F48C",
"G 	c #8DF697",
"H 	c #9BF7A2",
"I 	c #A8F8AD",
"J 	c #B5F8B8",
"K 	c #C2F9C3",
"L 	c #CDFACC",
"M 	c #D4FBD2",
"N 	c #8EF697",
"O 	c #403810",
"P 	c #44E058",
"Q 	c #57ED69",
"R 	c #66F376",
"S 	c #74F481",
"T 	c #82F48D",
"U 	c #9DF6A4",
"V 	c #ABF8B0",
"W 	c #B8F8BB",
"X 	c #C6FAC6",
"Y 	c #D3FBD1",
"Z 	c #DFFBDA",
"` 	c #DEFBDA",
" .	c #D4FBD1",
"..	c #B9F8BB",
"+.	c #73F482",
"@.	c #44E159",
"#.	c #3C7728",
"$.	c #45DB57",
"%.	c #57EE69",
"&.	c #67F376",
"*.	c #82F48E",
"=.	c #9EF6A5",
"-.	c #ACF8B0",
";.	c #BAF8BB",
">.	c #C7FAC7",
",.	c #D5FAD2",
"'.	c #E2FCDE",
").	c #E3FCDE",
"!.	c #D5FAD3",
"~.	c #BAF8BC",
"{.	c #432109",
"].	c #35AF3B",
"^.	c #44DA56",
"/.	c #56ED68",
"(.	c #77FC86",
"_.	c #75DE80",
":.	c #9CF6A4",
"<.	c #AAF8AE",
"[.	c #B7F8BA",
"}.	c #CBFFCC",
"|.	c #D0F9CE",
"1.	c #CFEDCC",
"2.	c #E1FFDE",
"3.	c #D2FBD0",
"4.	c #CFFFCF",
"5.	c #A0D9A3",
"6.	c #8FD093",
"7.	c #A2FFA9",
"8.	c #8FF598",
"9.	c #81F48D",
"0.	c #75F783",
"a.	c #6BFF7D",
"b.	c #52E263",
"c.	c #42D253",
"d.	c #412A0B",
"e.	c #2ECE44",
"f.	c #42D854",
"g.	c #54EA66",
"h.	c #68FC79",
"i.	c #224A27",
"j.	c #000000",
"k.	c #8BF395",
"l.	c #9AF7A1",
"m.	c #A7F8AD",
"n.	c #9AD69D",
"o.	c #263126",
"p.	c #6C826B",
"q.	c #9EC49E",
"r.	c #152217",
"s.	c #92FE9C",
"t.	c #6ACB74",
"u.	c #28562D",
"v.	c #30D347",
"w.	c #3C4011",
"x.	c #2CC940",
"y.	c #40D652",
"z.	c #52E864",
"A.	c #398F43",
"B.	c #0B170C",
"C.	c #030804",
"D.	c #6BBF74",
"E.	c #96F69D",
"F.	c #80C485",
"G.	c #445D45",
"H.	c #8BB58C",
"I.	c #0C0F0C",
"J.	c #B9EAB9",
"K.	c #637E63",
"L.	c #29382A",
"M.	c #7EB481",
"N.	c #89D28F",
"O.	c #8AF795",
"P.	c #101F12",
"Q.	c #152E17",
"R.	c #3A9044",
"S.	c #3EB14C",
"T.	c #2F9F3D",
"U.	c #2DCC42",
"V.	c #384D14",
"W.	c #29C33C",
"X.	c #3BD24E",
"Y.	c #4CDF5D",
"Z.	c #69EE78",
"`.	c #254F2A",
" +	c #62B46A",
".+	c #8DEE95",
"++	c #80BE84",
"@+	c #B2FDB6",
"#+	c #B9FCBC",
"$+	c #A2D8A4",
"%+	c #BCFCBE",
"&+	c #435C44",
"*+	c #68956A",
"=+	c #ADFFB3",
"-+	c #3B5D3F",
";+	c #2E4F31",
">+	c #8DFF9A",
",+	c #73FF84",
"'+	c #5EF16F",
")+	c #4DE35F",
"!+	c #3CD24E",
"~+	c #2AC33C",
"{+	c #374C13",
"]+	c #25BF38",
"^+	c #38D04A",
"/+	c #1A5221",
"(+	c #0B1D0D",
"_+	c #0D1E0F",
":+	c #427E48",
"<+	c #38663D",
"[+	c #426C45",
"}+	c #9FFAA7",
"|+	c #A6F7AB",
"1+	c #B4FFB8",
"2+	c #223123",
"3+	c #486B4A",
"4+	c #0E150E",
"5+	c #2F4E31",
"6+	c #8DFB98",
"7+	c #7FF58A",
"8+	c #020502",
"9+	c #71FF83",
"0+	c #53E064",
"a+	c #31953D",
"b+	c #299936",
"c+	c #3A3F0F",
"d+	c #1FBB33",
"e+	c #2DB43D",
"f+	c #18431D",
"g+	c #3F9E4A",
"h+	c #132B15",
"i+	c #66CE71",
"j+	c #78D381",
"k+	c #9BF6A3",
"l+	c #A6FFAD",
"m+	c #A5F9AA",
"n+	c #1F3120",
"o+	c #040604",
"p+	c #101B11",
"q+	c #88FF94",
"r+	c #61C46B",
"s+	c #010201",
"t+	c #15581D",
"u+	c #1FBD34",
"v+	c #412A0C",
"w+	c #18BA2E",
"x+	c #0D3F13",
"y+	c #258231",
"z+	c #4DE65F",
"A+	c #5EF870",
"B+	c #0B1A0C",
"C+	c #67DE74",
"D+	c #58A45F",
"E+	c #93FF9E",
"F+	c #75C57C",
"G+	c #111A11",
"H+	c #8AE091",
"I+	c #85D88C",
"J+	c #A5FFAF",
"K+	c #63AE6A",
"L+	c #0F1C10",
"M+	c #80FE8C",
"N+	c #43904C",
"O+	c #112B14",
"P+	c #41AE4E",
"Q+	c #4DE55F",
"R+	c #3EDC51",
"S+	c #2CC53E",
"T+	c #18B72D",
"U+	c #46230B",
"V+	c #1C9922",
"W+	c #030B03",
"X+	c #35D047",
"Y+	c #43D854",
"Z+	c #52EA64",
"`+	c #41A74D",
" @	c #6EFF7F",
".@	c #26522B",
"+@	c #040704",
"@@	c #223F25",
"#@	c #72CA7A",
"$@	c #8EF898",
"%@	c #589A5E",
"&@	c #0C150D",
"*@	c #070D07",
"=@	c #6CD877",
"-@	c #73F681",
";@	c #2B6131",
">@	c #2F7A37",
",@	c #51E763",
"'@	c #34C945",
")@	c #24B935",
"!@	c #1B9521",
"~@	c #2A6515",
"{@	c #1CB22E",
"]@	c #2BC03C",
"^@	c #3ACF4B",
"/@	c #48DD59",
"(@	c #55EB67",
"_@	c #60F271",
":@	c #6CFA7C",
"<@	c #71F57F",
"[@	c #7EFF8C",
"}@	c #7FFA8C",
"|@	c #7FF48B",
"1@	c #83F890",
"2@	c #7FF38B",
"3@	c #71DE7C",
"4@	c #7CFE8A",
"5@	c #70F37E",
"6@	c #68F379",
"7@	c #57DB67",
"8@	c #54E866",
"9@	c #2BC13D",
"0@	c #1CB22D",
"a@	c #2A6516",
"b@	c #3D350D",
"c@	c #11AD25",
"d@	c #22B733",
"e@	c #30C541",
"f@	c #3ED34F",
"g@	c #4AE05C",
"h@	c #56EC68",
"i@	c #60F371",
"j@	c #67F377",
"k@	c #6DF37C",
"l@	c #71F480",
"m@	c #76F484",
"n@	c #30C642",
"o@	c #246E16",
"p@	c #18AE2A",
"q@	c #26BB37",
"r@	c #33C844",
"s@	c #3FD450",
"t@	c #5CF16E",
"u@	c #66F377",
"v@	c #69F379",
"w@	c #6BF37A",
"x@	c #19AE2A",
"y@	c #402F0D",
"z@	c #10A11F",
"A@	c #1BB02D",
"B@	c #28BD39",
"C@	c #33C945",
"D@	c #47DC58",
"E@	c #4FE561",
"F@	c #5BF06C",
"G@	c #5EF26F",
"H@	c #5FF271",
"I@	c #1CB02D",
"J@	c #393D0E",
"K@	c #0EA921",
"L@	c #1CB12D",
"M@	c #27BC38",
"N@	c #31C642",
"O@	c #39CF4B",
"P@	c #41D753",
"Q@	c #4DE25E",
"R@	c #50E662",
"S@	c #52E763",
"T@	c #39D04C",
"U@	c #0EA922",
"V@	c #324C10",
"W@	c #13AA26",
"X@	c #1DB02E",
"Y@	c #23B935",
"Z@	c #2DC13E",
"`@	c #3DD450",
" #	c #3ED450",
".#	c #2DC13D",
"+#	c #1BB02C",
"@#	c #12AB25",
"##	c #1AA529",
"$#	c #24B135",
"%#	c #1EB32F",
"&#	c #25BB37",
"*#	c #2FC541",
"=#	c #32C844",
"-#	c #20AF30",
";#	c #1CA52B",
">#	c #393D0F",
",#	c #3D2D0C",
"'#	c #2B721C",
")#	c #2BB53D",
"!#	c #31B640",
"~#	c #24B435",
"{#	c #1FB530",
"]#	c #22B834",
"^#	c #24BA36",
"/#	c #24BA35",
"(#	c #23B834",
"_#	c #1FB330",
":#	c #2BB43B",
"<#	c #2AB53C",
"[#	c #2E7420",
"}#	c #3B330C",
"|#	c #31681C",
"1#	c #369D3A",
"2#	c #3EBF50",
"3#	c #46C156",
"4#	c #4BC25A",
"5#	c #44C054",
"6#	c #3BBE4D",
"7#	c #399F3E",
"8#	c #356920",
"9#	c #3A1D09",
"0#	c #3C280A",
"a#	c #353C0D",
"b#	c #31490E",
"c#	c #3C290A",
"d#	c #391D08",
"                                                                ",
"                                                                ",
"                        . + @ # # @ + .                         ",
"                    $ % & * = - - = * & % $                     ",
"                ; > , ' ) ! ~ { { ~ ! ) ' , > ;                 ",
"              ] ^ / ( _ : < [ } } [ < : _ ( / ^ ]               ",
"            | 1 2 3 4 5 6 7 8 9 9 0 7 6 5 4 3 a 1 |             ",
"          b c d e f g h 7 i j k k j i 7 l m f e n c b           ",
"        o p q r s t 5 u v w x y y x w v u 5 z s A q p o         ",
"        B C D E F G H I J K L M M L K J I H N F E D C B         ",
"      O P Q R S T _ U V W X Y Z `  .X ..V U _ T +.R Q @.O       ",
"      #.$.%.&.+.*._ =.-.;.>.,.'.).!.>.~.-.=._ *.2 &.%.$.#.      ",
"    {.].^./.R (._._ :.<.[.}.|.1.2.3.4.5.6.7.8.9.0.a.b.c.].{.    ",
"    d.e.f.g.h.i.j.k.l.m.n.o.j.j.p.q.j.j.j.r.s.t.u.j.j.j.v.d.    ",
"    w.x.y.z.A.B.C.D.E.F.j.G.H.I.J.K.L.M.N.j.O.P.Q.R.S.T.U.w.    ",
"    V.W.X.Y.j.Z.`. +.+j.++@+#+$+%+&+*+=+-+;+>+j.,+'+)+!+~+V.    ",
"    {+]+^+/+(+_+j.:+<+[+}+|+-.8 1+2+3+4+5+6+7+8+9+0+a+b+]+{+    ",
"    c+d+e+j.f+g+h+i+j.j+! k+l+m+=+j.n+o+p+q+r+j.s+j.j.t+u+c+    ",
"    v+w+x+y+z+A+B+C+j.D+E+F+G+H+I+j.J+K+L+M+N+O+P+Q+R+S+T+v+    ",
"    U+V+W+X+Y+Z+`+ @.@j.+@@@#@$@%@j.&@*@=@-@;@>@,@Y+'@)@!@U+    ",
"      ~@{@]@^@/@(@_@:@<@[@}@|@9.1@2@3@4@5@6@7@8@/@^@9@0@a@      ",
"      b@c@d@e@f@g@h@i@j@k@l@a m@m@a l@k@j@i@h@g@f@n@d@c@b@      ",
"        o@p@q@r@s@g@g.t@q u@v@w@w@v@u@q t@g.g@s@r@q@x@o@        ",
"        y@z@A@B@C@f@D@E@h@F@G@H@H@G@F@h@E@D@f@C@B@I@z@y@        ",
"          J@K@L@M@N@O@P@/@Q@R@S@S@R@Q@/@P@T@N@M@L@U@J@          ",
"            V@W@X@Y@Z@'@O@`@P@Y+Y+P@ #O@'@.#)@+#@#V@            ",
"              J@##$#%#&#]@*#=#'@'@=#e@]@&#%#-#;#>#              ",
"                ,#'#)#!#~#{#]#^#/#(#{#_#:#<#[#,#                ",
"                    }#|#1#2#3#4#4#5#6#7#8#}#                    ",
"                        9#0#a#b#b#a#c#d#                        ",
"                                                                ",
"                                                                "};
